<svg xmlns="http://www.w3.org/2000/svg" viewBox="0 0 72 72" fill="none">
  <defs>
    <linearGradient id="tile" x1="8" y1="7" x2="64" y2="66" gradientUnits="userSpaceOnUse">
      <stop stop-color="#D96C95"/>
      <stop offset="0.48" stop-color="#B94772"/>
      <stop offset="1" stop-color="#7E2E52"/>
    </linearGradient>
    <linearGradient id="gold" x1="18" y1="12" x2="56" y2="59" gradientUnits="userSpaceOnUse">
      <stop stop-color="#FFF4D0"/>
      <stop offset="0.46" stop-color="#E7C27C"/>
      <stop offset="1" stop-color="#B8863E"/>
    </linearGradient>
    <radialGradient id="shine" cx="0" cy="0" r="1" gradientTransform="translate(20 15) rotate(46) scale(40)">
      <stop stop-color="#FFFFFF" stop-opacity="0.34"/>
      <stop offset="0.7" stop-color="#FFFFFF" stop-opacity="0"/>
    </radialGradient>
    <filter id="shadow" x="-20%" y="-20%" width="140%" height="140%">
      <feDropShadow dx="0" dy="3" stdDeviation="3" flood-color="#55213A" flood-opacity="0.28"/>
    </filter>
  </defs>

  <rect x="2" y="2" width="68" height="68" rx="19" fill="url(#tile)" filter="url(#shadow)"/>
  <rect x="2.75" y="2.75" width="66.5" height="66.5" rx="18.25" stroke="#F9D9E4" stroke-opacity="0.34" stroke-width="1.5"/>
  <rect x="5" y="5" width="62" height="62" rx="16" fill="url(#shine)"/>

  <path d="M25 53C30 46 31.8 37.4 31.4 18.4" stroke="url(#gold)" stroke-width="3" stroke-linecap="round"/>
  <path d="M29.8 18.6C38.6 11.8 51.9 13.8 50.4 23.6C49.2 31.2 39.4 32.6 31.7 31.1" stroke="url(#gold)" stroke-width="2.7" stroke-linecap="round" stroke-linejoin="round"/>
  <path d="M31.5 31.1C44.3 27.6 55.7 33.3 53.2 44.1C50.7 54.6 36.6 57 24.3 52.8" stroke="url(#gold)" stroke-width="2.7" stroke-linecap="round" stroke-linejoin="round"/>
  <path d="M20.6 56.1C31.6 59.5 45.8 58.3 56 49.9" stroke="url(#gold)" stroke-width="1.55" stroke-linecap="round" opacity="0.88"/>
  <path d="M25.5 22.2C23 23.5 21.4 25.5 20.8 28" stroke="url(#gold)" stroke-width="1.35" stroke-linecap="round" opacity="0.72"/>

  <g transform="translate(53 52)">
    <ellipse cx="0" cy="-5.8" rx="2.2" ry="4.4" fill="#FBE8C0" transform="rotate(4)"/>
    <ellipse cx="5" cy="-1.7" rx="2.2" ry="4.4" fill="#EAC47D" transform="rotate(74 5 -1.7)"/>
    <ellipse cx="3.1" cy="4.4" rx="2.2" ry="4.4" fill="#FBE8C0" transform="rotate(146 3.1 4.4)"/>
    <ellipse cx="-3.2" cy="4.3" rx="2.2" ry="4.4" fill="#DFAF62" transform="rotate(-146 -3.2 4.3)"/>
    <ellipse cx="-5" cy="-1.7" rx="2.2" ry="4.4" fill="#F7DCA7" transform="rotate(-74 -5 -1.7)"/>
    <circle r="2" fill="#8A4B3B"/>
  </g>

  <path d="M54 45C58 39.8 59.2 34.9 58.3 29.8" stroke="#EAC47D" stroke-width="1.1" stroke-linecap="round" opacity="0.74"/>
  <path d="M57.5 35.7C60.1 34.2 62.1 34.4 63.5 36.4C61.4 38.2 59.2 38 57.5 35.7Z" fill="#F7DCA7" opacity="0.78"/>
  <circle cx="18.5" cy="17.2" r="1.3" fill="#FFF0CB" opacity="0.75"/>
  <circle cx="16" cy="20.5" r="0.85" fill="#FFF0CB" opacity="0.52"/>
</svg>
